<mxfile host="app.diagrams.net" modified="2021-11-16T03:06:08.179Z" agent="5.0 (Windows NT 10.0; Win64; x64) AppleWebKit/537.36 (KHTML, like Gecko) Chrome/95.0.4638.69 Safari/537.36 Edg/95.0.1020.53" etag="5CHAmSmwXYE1eryETTzw" version="15.7.3" type="github">
  <diagram name="Page-1" id="c4acf3e9-155e-7222-9cf6-157b1a14988f">
    <mxGraphModel dx="2354" dy="681" grid="1" gridSize="10" guides="1" tooltips="1" connect="1" arrows="1" fold="1" page="1" pageScale="1" pageWidth="850" pageHeight="1100" background="none" math="0" shadow="0">
      <root>
        <mxCell id="0" />
        <mxCell id="1" parent="0" />
        <mxCell id="tVSR4F9iazNKwAi776XE-34" style="edgeStyle=orthogonalEdgeStyle;rounded=0;orthogonalLoop=1;jettySize=auto;html=1;exitX=1;exitY=0.5;exitDx=0;exitDy=0;entryX=0;entryY=0.75;entryDx=0;entryDy=0;dashed=1;endArrow=block;endFill=0;" parent="1" source="tVSR4F9iazNKwAi776XE-21" target="tVSR4F9iazNKwAi776XE-29" edge="1">
          <mxGeometry relative="1" as="geometry" />
        </mxCell>
        <mxCell id="tVSR4F9iazNKwAi776XE-21" value="Compiler Service" style="html=1;" parent="1" vertex="1">
          <mxGeometry x="-475" y="597.5" width="100" height="37.5" as="geometry" />
        </mxCell>
        <mxCell id="tVSR4F9iazNKwAi776XE-35" style="edgeStyle=orthogonalEdgeStyle;rounded=0;orthogonalLoop=1;jettySize=auto;html=1;exitX=0;exitY=0.25;exitDx=0;exitDy=0;entryX=1;entryY=0.5;entryDx=0;entryDy=0;dashed=1;endArrow=block;endFill=0;" parent="1" source="tVSR4F9iazNKwAi776XE-22" target="tVSR4F9iazNKwAi776XE-27" edge="1">
          <mxGeometry relative="1" as="geometry" />
        </mxCell>
        <mxCell id="tVSR4F9iazNKwAi776XE-22" value="Executor" style="html=1;" parent="1" vertex="1">
          <mxGeometry x="225" y="600" width="110" height="50" as="geometry" />
        </mxCell>
        <mxCell id="tVSR4F9iazNKwAi776XE-32" style="edgeStyle=orthogonalEdgeStyle;rounded=0;orthogonalLoop=1;jettySize=auto;html=1;exitX=1;exitY=0.5;exitDx=0;exitDy=0;endArrow=block;endFill=0;dashed=1;entryX=0;entryY=0.5;entryDx=0;entryDy=0;" parent="1" source="tVSR4F9iazNKwAi776XE-24" target="tVSR4F9iazNKwAi776XE-26" edge="1">
          <mxGeometry relative="1" as="geometry">
            <mxPoint x="-360" y="410" as="targetPoint" />
            <Array as="points">
              <mxPoint x="-400" y="420" />
              <mxPoint x="-360" y="420" />
              <mxPoint x="-360" y="410" />
            </Array>
          </mxGeometry>
        </mxCell>
        <mxCell id="tVSR4F9iazNKwAi776XE-24" value="Language Service" style="html=1;" parent="1" vertex="1">
          <mxGeometry x="-500" y="390" width="100" height="40" as="geometry" />
        </mxCell>
        <mxCell id="tVSR4F9iazNKwAi776XE-37" style="edgeStyle=orthogonalEdgeStyle;rounded=0;orthogonalLoop=1;jettySize=auto;html=1;exitX=1;exitY=0.5;exitDx=0;exitDy=0;dashed=1;endArrow=block;endFill=0;" parent="1" source="tVSR4F9iazNKwAi776XE-25" target="tVSR4F9iazNKwAi776XE-30" edge="1">
          <mxGeometry relative="1" as="geometry" />
        </mxCell>
        <mxCell id="tVSR4F9iazNKwAi776XE-25" value="OJ Adaptor" style="html=1;" parent="1" vertex="1">
          <mxGeometry x="-550" y="197.5" width="110" height="40" as="geometry" />
        </mxCell>
        <mxCell id="tVSR4F9iazNKwAi776XE-26" value="&lt;p style=&quot;margin: 0px ; margin-top: 4px ; text-align: center&quot;&gt;&lt;i&gt;&amp;lt;&amp;lt;Interface&amp;gt;&amp;gt;&lt;/i&gt;&lt;br&gt;&lt;b&gt;Language Interface&lt;/b&gt;&lt;/p&gt;&lt;hr size=&quot;1&quot;&gt;&lt;p style=&quot;margin: 0px ; margin-left: 4px&quot;&gt;+ connect()&lt;/p&gt;&lt;p style=&quot;margin: 0px ; margin-left: 4px&quot;&gt;+ render(text)&lt;/p&gt;&lt;p style=&quot;margin: 0px ; margin-left: 4px&quot;&gt;+ auto_hint(text)&lt;/p&gt;" style="verticalAlign=top;align=left;overflow=fill;fontSize=12;fontFamily=Helvetica;html=1;" parent="1" vertex="1">
          <mxGeometry x="-315" y="360" width="120" height="100" as="geometry" />
        </mxCell>
        <mxCell id="tVSR4F9iazNKwAi776XE-27" value="&lt;p style=&quot;margin: 0px ; margin-top: 4px ; text-align: center&quot;&gt;&lt;i&gt;&amp;lt;&amp;lt;Interface&amp;gt;&amp;gt;&lt;/i&gt;&lt;br&gt;&lt;b&gt;Execution Interface&lt;/b&gt;&lt;/p&gt;&lt;hr size=&quot;1&quot;&gt;&lt;p style=&quot;margin: 0px ; margin-left: 4px&quot;&gt;+ execute(binary token)&lt;/p&gt;" style="verticalAlign=top;align=left;overflow=fill;fontSize=12;fontFamily=Helvetica;html=1;" parent="1" vertex="1">
          <mxGeometry x="190" y="464.5" width="135" height="70" as="geometry" />
        </mxCell>
        <mxCell id="tVSR4F9iazNKwAi776XE-29" value="&lt;p style=&quot;margin: 0px ; margin-top: 4px ; text-align: center&quot;&gt;&lt;i&gt;&amp;lt;&amp;lt;Interface&amp;gt;&amp;gt;&lt;/i&gt;&lt;br&gt;&lt;b&gt;Compile Interface&lt;/b&gt;&lt;/p&gt;&lt;hr size=&quot;1&quot;&gt;&lt;p style=&quot;margin: 0px ; margin-left: 4px&quot;&gt;+ compile(text)&lt;/p&gt;&lt;p style=&quot;margin: 0px ; margin-left: 4px&quot;&gt;+ getBinary(binary_token)&lt;/p&gt;" style="verticalAlign=top;align=left;overflow=fill;fontSize=12;fontFamily=Helvetica;html=1;" parent="1" vertex="1">
          <mxGeometry x="-330" y="572.5" width="150" height="87.5" as="geometry" />
        </mxCell>
        <mxCell id="tVSR4F9iazNKwAi776XE-30" value="&lt;p style=&quot;margin: 0px ; margin-top: 4px ; text-align: center&quot;&gt;&lt;i&gt;&amp;lt;&amp;lt;Interface&amp;gt;&amp;gt;&lt;/i&gt;&lt;br&gt;&lt;b&gt;OJ interface&lt;/b&gt;&lt;/p&gt;&lt;hr size=&quot;1&quot;&gt;&lt;p style=&quot;margin: 0px ; margin-left: 4px&quot;&gt;+ authorize()&lt;/p&gt;&lt;p style=&quot;margin: 0px ; margin-left: 4px&quot;&gt;+ send_problem(token)&lt;/p&gt;&lt;p style=&quot;margin: 0px ; margin-left: 4px&quot;&gt;+ evaluate(text, problem_id,token)&lt;/p&gt;" style="verticalAlign=top;align=left;overflow=fill;fontSize=12;fontFamily=Helvetica;html=1;" parent="1" vertex="1">
          <mxGeometry x="-400" y="170" width="200" height="95" as="geometry" />
        </mxCell>
        <mxCell id="tVSR4F9iazNKwAi776XE-50" value="User Info" style="swimlane;fontStyle=1;align=center;verticalAlign=top;childLayout=stackLayout;horizontal=1;startSize=26;horizontalStack=0;resizeParent=1;resizeParentMax=0;resizeLast=0;collapsible=1;marginBottom=0;glass=1;" parent="1" vertex="1">
          <mxGeometry x="200" y="126" width="160" height="128" as="geometry" />
        </mxCell>
        <mxCell id="tVSR4F9iazNKwAi776XE-51" value="~ username&#xa;~ email&#xa;~ password&#xa;~ authorized OJ&#xa;~ authorized token&#xa;" style="text;strokeColor=none;fillColor=none;align=left;verticalAlign=top;spacingLeft=4;spacingRight=4;overflow=hidden;rotatable=0;points=[[0,0.5],[1,0.5]];portConstraint=eastwest;glass=1;" parent="tVSR4F9iazNKwAi776XE-50" vertex="1">
          <mxGeometry y="26" width="160" height="94" as="geometry" />
        </mxCell>
        <mxCell id="tVSR4F9iazNKwAi776XE-52" value="" style="line;strokeWidth=1;fillColor=none;align=left;verticalAlign=middle;spacingTop=-1;spacingLeft=3;spacingRight=3;rotatable=0;labelPosition=right;points=[];portConstraint=eastwest;glass=1;" parent="tVSR4F9iazNKwAi776XE-50" vertex="1">
          <mxGeometry y="120" width="160" height="8" as="geometry" />
        </mxCell>
        <mxCell id="tVSR4F9iazNKwAi776XE-71" value="" style="group" parent="1" vertex="1" connectable="0">
          <mxGeometry x="-120" y="360" width="240" height="240" as="geometry" />
        </mxCell>
        <mxCell id="tVSR4F9iazNKwAi776XE-5" value="EditorService" style="swimlane;fontStyle=1;align=center;verticalAlign=top;childLayout=stackLayout;horizontal=1;startSize=26;horizontalStack=0;resizeParent=1;resizeParentMax=0;resizeLast=0;collapsible=1;marginBottom=0;" parent="tVSR4F9iazNKwAi776XE-71" vertex="1">
          <mxGeometry x="10" width="220" height="240.75" as="geometry" />
        </mxCell>
        <mxCell id="tVSR4F9iazNKwAi776XE-6" value="- rendering&#xa;- auto_hint_buffer&#xa;- compile_result_buffer&#xa;- execution_buffer&#xa;- binary_token" style="text;strokeColor=none;fillColor=none;align=left;verticalAlign=top;spacingLeft=4;spacingRight=4;overflow=hidden;rotatable=0;points=[[0,0.5],[1,0.5]];portConstraint=eastwest;" parent="tVSR4F9iazNKwAi776XE-5" vertex="1">
          <mxGeometry y="26" width="220" height="90" as="geometry" />
        </mxCell>
        <mxCell id="tVSR4F9iazNKwAi776XE-7" value="" style="line;strokeWidth=1;fillColor=none;align=left;verticalAlign=middle;spacingTop=-1;spacingLeft=3;spacingRight=3;rotatable=0;labelPosition=right;points=[];portConstraint=eastwest;" parent="tVSR4F9iazNKwAi776XE-5" vertex="1">
          <mxGeometry y="116" width="220" height="8.5" as="geometry" />
        </mxCell>
        <mxCell id="tVSR4F9iazNKwAi776XE-8" value="- display()&#xa;- type_in()&#xa;- connect_server()&#xa;- render()&#xa;-auto_hint()&#xa;- compile()&#xa;- execute()" style="text;strokeColor=none;fillColor=none;align=left;verticalAlign=top;spacingLeft=4;spacingRight=4;overflow=hidden;rotatable=0;points=[[0,0.5],[1,0.5]];portConstraint=eastwest;" parent="tVSR4F9iazNKwAi776XE-5" vertex="1">
          <mxGeometry y="124.5" width="220" height="116.25" as="geometry" />
        </mxCell>
        <mxCell id="tVSR4F9iazNKwAi776XE-69" value="" style="html=1;points=[];perimeter=orthogonalPerimeter;glass=1;verticalAlign=middle;" parent="tVSR4F9iazNKwAi776XE-71" vertex="1">
          <mxGeometry width="10" height="240" as="geometry" />
        </mxCell>
        <mxCell id="tVSR4F9iazNKwAi776XE-70" value="" style="html=1;points=[];perimeter=orthogonalPerimeter;glass=1;verticalAlign=middle;" parent="tVSR4F9iazNKwAi776XE-71" vertex="1">
          <mxGeometry x="230" width="10" height="240" as="geometry" />
        </mxCell>
        <mxCell id="tVSR4F9iazNKwAi776XE-75" value="" style="group" parent="1" vertex="1" connectable="0">
          <mxGeometry x="-130" y="78" width="250" height="262" as="geometry" />
        </mxCell>
        <mxCell id="tVSR4F9iazNKwAi776XE-13" value="OJ Manager" style="swimlane;fontStyle=1;align=center;verticalAlign=top;childLayout=stackLayout;horizontal=1;startSize=26;horizontalStack=0;resizeParent=1;resizeParentMax=0;resizeLast=0;collapsible=1;marginBottom=0;glass=1;" parent="tVSR4F9iazNKwAi776XE-75" vertex="1">
          <mxGeometry x="10.96" y="2.3392857142857144" width="229.08" height="264.8462698412699" as="geometry" />
        </mxCell>
        <mxCell id="tVSR4F9iazNKwAi776XE-14" value="- user_Info&#xa;- result_buffer&#xa;- is_logged_in&#xa;- text_buffer &#xa;- current_problem_id" style="text;strokeColor=none;fillColor=none;align=left;verticalAlign=top;spacingLeft=4;spacingRight=4;overflow=hidden;rotatable=0;points=[[0,0.5],[1,0.5]];portConstraint=eastwest;" parent="tVSR4F9iazNKwAi776XE-13" vertex="1">
          <mxGeometry y="26" width="229.08" height="80.36746031746033" as="geometry" />
        </mxCell>
        <mxCell id="tVSR4F9iazNKwAi776XE-15" value="" style="line;strokeWidth=1;fillColor=none;align=left;verticalAlign=middle;spacingTop=-1;spacingLeft=3;spacingRight=3;rotatable=0;labelPosition=right;points=[];portConstraint=eastwest;" parent="tVSR4F9iazNKwAi776XE-13" vertex="1">
          <mxGeometry y="106.36746031746033" width="229.08" height="9.35714285714286" as="geometry" />
        </mxCell>
        <mxCell id="tVSR4F9iazNKwAi776XE-16" value="- log_in(login_form)&#xa;- sign_in(sign_in_form)&#xa;- log_out()&#xa;- change_account(change_account_form)&#xa;- authorize()&#xa;- unauthorize()&#xa;- get_problem_Info()&#xa;- submit()&#xa;- display()" style="text;strokeColor=none;fillColor=none;align=left;verticalAlign=middle;spacingLeft=4;spacingRight=4;overflow=hidden;rotatable=0;points=[[0,0.5],[1,0.5]];portConstraint=eastwest;" parent="tVSR4F9iazNKwAi776XE-13" vertex="1">
          <mxGeometry y="115.72460317460319" width="229.08" height="149.1216666666667" as="geometry" />
        </mxCell>
        <mxCell id="tVSR4F9iazNKwAi776XE-72" value="" style="html=1;points=[];perimeter=orthogonalPerimeter;glass=1;verticalAlign=middle;" parent="tVSR4F9iazNKwAi776XE-75" vertex="1">
          <mxGeometry width="9.9601593625498" height="259.66071428571433" as="geometry" />
        </mxCell>
        <mxCell id="tVSR4F9iazNKwAi776XE-73" value="" style="html=1;points=[];perimeter=orthogonalPerimeter;glass=1;verticalAlign=middle;" parent="tVSR4F9iazNKwAi776XE-75" vertex="1">
          <mxGeometry x="240.0398406374502" y="2.339285714285715" width="9.9601593625498" height="259.66071428571433" as="geometry" />
        </mxCell>
        <mxCell id="jlhTubElEdLQrutXq7Bg-2" value="" style="endArrow=open;html=1;endSize=12;startArrow=diamondThin;startSize=14;startFill=0;edgeStyle=orthogonalEdgeStyle;rounded=0;entryX=0;entryY=0.5;entryDx=0;entryDy=0;" parent="1" target="tVSR4F9iazNKwAi776XE-51" edge="1">
          <mxGeometry relative="1" as="geometry">
            <mxPoint y="80" as="sourcePoint" />
            <mxPoint x="-170" y="340" as="targetPoint" />
            <Array as="points">
              <mxPoint y="30" />
              <mxPoint x="140" y="30" />
              <mxPoint x="140" y="199" />
            </Array>
          </mxGeometry>
        </mxCell>
        <mxCell id="jlhTubElEdLQrutXq7Bg-3" value="1" style="edgeLabel;resizable=0;html=1;align=left;verticalAlign=top;glass=1;" parent="jlhTubElEdLQrutXq7Bg-2" connectable="0" vertex="1">
          <mxGeometry x="-1" relative="1" as="geometry">
            <mxPoint x="10" y="-30" as="offset" />
          </mxGeometry>
        </mxCell>
        <mxCell id="jlhTubElEdLQrutXq7Bg-4" value="1...n" style="edgeLabel;resizable=0;html=1;align=right;verticalAlign=top;glass=1;" parent="jlhTubElEdLQrutXq7Bg-2" connectable="0" vertex="1">
          <mxGeometry x="1" relative="1" as="geometry" />
        </mxCell>
        <mxCell id="jlhTubElEdLQrutXq7Bg-13" value="Text Buffer" style="swimlane;fontStyle=1;align=center;verticalAlign=top;childLayout=stackLayout;horizontal=1;startSize=26;horizontalStack=0;resizeParent=1;resizeParentMax=0;resizeLast=0;collapsible=1;marginBottom=0;glass=1;" parent="1" vertex="1">
          <mxGeometry x="220" y="300" width="160" height="100" as="geometry" />
        </mxCell>
        <mxCell id="jlhTubElEdLQrutXq7Bg-14" value="- text_buffer" style="text;strokeColor=none;fillColor=none;align=left;verticalAlign=top;spacingLeft=4;spacingRight=4;overflow=hidden;rotatable=0;points=[[0,0.5],[1,0.5]];portConstraint=eastwest;glass=1;" parent="jlhTubElEdLQrutXq7Bg-13" vertex="1">
          <mxGeometry y="26" width="160" height="26" as="geometry" />
        </mxCell>
        <mxCell id="jlhTubElEdLQrutXq7Bg-15" value="" style="line;strokeWidth=1;fillColor=none;align=left;verticalAlign=middle;spacingTop=-1;spacingLeft=3;spacingRight=3;rotatable=0;labelPosition=right;points=[];portConstraint=eastwest;glass=1;" parent="jlhTubElEdLQrutXq7Bg-13" vertex="1">
          <mxGeometry y="52" width="160" height="8" as="geometry" />
        </mxCell>
        <mxCell id="jlhTubElEdLQrutXq7Bg-16" value="+ readText()&#xa;+ write()" style="text;strokeColor=none;fillColor=none;align=left;verticalAlign=top;spacingLeft=4;spacingRight=4;overflow=hidden;rotatable=0;points=[[0,0.5],[1,0.5]];portConstraint=eastwest;glass=1;" parent="jlhTubElEdLQrutXq7Bg-13" vertex="1">
          <mxGeometry y="60" width="160" height="40" as="geometry" />
        </mxCell>
        <mxCell id="jlhTubElEdLQrutXq7Bg-17" value="Use" style="endArrow=open;endSize=12;dashed=1;html=1;rounded=0;entryX=0.5;entryY=1;entryDx=0;entryDy=0;exitX=-0.22;exitY=0.686;exitDx=0;exitDy=0;exitPerimeter=0;" parent="1" source="tVSR4F9iazNKwAi776XE-69" target="tVSR4F9iazNKwAi776XE-26" edge="1">
          <mxGeometry width="160" relative="1" as="geometry">
            <mxPoint x="-425" y="520" as="sourcePoint" />
            <mxPoint x="-265" y="520" as="targetPoint" />
          </mxGeometry>
        </mxCell>
        <mxCell id="jlhTubElEdLQrutXq7Bg-18" value="Use" style="endArrow=open;endSize=12;dashed=1;html=1;rounded=0;entryX=1;entryY=0.5;entryDx=0;entryDy=0;exitX=-0.22;exitY=0.686;exitDx=0;exitDy=0;exitPerimeter=0;" parent="1" target="tVSR4F9iazNKwAi776XE-29" edge="1">
          <mxGeometry width="160" relative="1" as="geometry">
            <mxPoint x="-112.20000000000005" y="554.6400000000001" as="sourcePoint" />
            <mxPoint x="-260" y="470" as="targetPoint" />
            <Array as="points" />
          </mxGeometry>
        </mxCell>
        <mxCell id="jlhTubElEdLQrutXq7Bg-19" value="Use" style="endArrow=open;endSize=12;dashed=1;html=1;rounded=0;exitX=0;exitY=0.5;exitDx=0;exitDy=0;" parent="1" source="tVSR4F9iazNKwAi776XE-22" edge="1">
          <mxGeometry width="160" relative="1" as="geometry">
            <mxPoint x="-102.20000000000005" y="564.6400000000001" as="sourcePoint" />
            <mxPoint x="-180" y="620" as="targetPoint" />
            <Array as="points" />
          </mxGeometry>
        </mxCell>
        <mxCell id="jlhTubElEdLQrutXq7Bg-20" value="Use" style="endArrow=open;endSize=12;dashed=1;html=1;rounded=0;entryX=0;entryY=0.5;entryDx=0;entryDy=0;" parent="1" source="tVSR4F9iazNKwAi776XE-70" target="tVSR4F9iazNKwAi776XE-27" edge="1">
          <mxGeometry width="160" relative="1" as="geometry">
            <mxPoint x="400" y="725" as="sourcePoint" />
            <mxPoint x="20" y="710" as="targetPoint" />
            <Array as="points" />
          </mxGeometry>
        </mxCell>
        <mxCell id="jlhTubElEdLQrutXq7Bg-28" value="Extends" style="endArrow=block;endSize=16;endFill=0;html=1;rounded=0;entryX=-0.001;entryY=0.962;entryDx=0;entryDy=0;entryPerimeter=0;" parent="1" target="jlhTubElEdLQrutXq7Bg-14" edge="1">
          <mxGeometry width="160" relative="1" as="geometry">
            <mxPoint x="120" y="440" as="sourcePoint" />
            <mxPoint x="280" y="440" as="targetPoint" />
          </mxGeometry>
        </mxCell>
        <mxCell id="jlhTubElEdLQrutXq7Bg-30" value="text_buffer" style="endArrow=block;endFill=1;html=1;edgeStyle=orthogonalEdgeStyle;align=left;verticalAlign=top;rounded=0;entryX=0;entryY=0.5;entryDx=0;entryDy=0;" parent="1" target="jlhTubElEdLQrutXq7Bg-14" edge="1">
          <mxGeometry x="-1" relative="1" as="geometry">
            <mxPoint x="120" y="271" as="sourcePoint" />
            <mxPoint x="270.0400000000001" y="270.62472222222226" as="targetPoint" />
            <Array as="points">
              <mxPoint x="170" y="271" />
              <mxPoint x="170" y="339" />
            </Array>
          </mxGeometry>
        </mxCell>
        <mxCell id="jlhTubElEdLQrutXq7Bg-31" value="1" style="edgeLabel;resizable=0;html=1;align=left;verticalAlign=bottom;glass=1;" parent="jlhTubElEdLQrutXq7Bg-30" connectable="0" vertex="1">
          <mxGeometry x="-1" relative="1" as="geometry" />
        </mxCell>
        <mxCell id="jlhTubElEdLQrutXq7Bg-34" value="Use" style="endArrow=open;endSize=12;dashed=1;html=1;rounded=0;entryX=1;entryY=0.5;entryDx=0;entryDy=0;" parent="1" source="tVSR4F9iazNKwAi776XE-72" target="tVSR4F9iazNKwAi776XE-30" edge="1">
          <mxGeometry width="160" relative="1" as="geometry">
            <mxPoint x="-97.20000000000005" y="329.64" as="sourcePoint" />
            <mxPoint x="-230" y="265" as="targetPoint" />
          </mxGeometry>
        </mxCell>
        <mxCell id="jlhTubElEdLQrutXq7Bg-35" value="read" style="text;html=1;align=center;verticalAlign=middle;resizable=0;points=[];autosize=1;strokeColor=none;fillColor=none;" parent="1" vertex="1">
          <mxGeometry x="150" y="300" width="40" height="20" as="geometry" />
        </mxCell>
        <mxCell id="jlhTubElEdLQrutXq7Bg-36" value="Manage" style="text;html=1;align=center;verticalAlign=middle;resizable=0;points=[];autosize=1;strokeColor=none;fillColor=none;" parent="1" vertex="1">
          <mxGeometry x="110" y="60" width="60" height="20" as="geometry" />
        </mxCell>
      </root>
    </mxGraphModel>
  </diagram>
</mxfile>
